PathFileType	4	(X/Y/Z)	C:/Users/beibeiliu/ov580/test_trc\sequence.9_training_dense_left.trc
DataRate	CameraRate	NumFrames	NumMarkers	Units	OrigDataRate	OrigDataStartFrame	OrigNumFrames
120	120	14	19	mm	120	26	77
Frame#	Time	ThumbCMC			ThumbMCP			ThumbIP			ThumbTip			IndexMCP			IndexPIP			IndexTip			MiddleMCP			MiddlePIP			MiddleTip			RingMCP			RingPIP			RingTip			PinkyMCP			PinkyPIP			PinkyTip			BackHand1			BackHand2			BackHand3	
		X0	Y0	Z0	X1	Y1	Z1	X2	Y2	Z2	X3	Y3	Z3	X4	Y4	Z4	X5	Y5	Z5	X6	Y6	Z6	X7	Y7	Z7	X8	Y8	Z8	X9	Y9	Z9	X10	Y10	Z10	X11	Y11	Z11	X12	Y12	Z12	X13	Y13	Z13	X14	Y14	Z14	X15	Y15	Z15	X16	Y16	Z16	X17	Y17	Z17	X18	Y18	Z18	
25	0.208333	-203.325	30.941	29.8244	-208.833	44.6299	2.48431	-195.083	55.8157	-17.7002	-185.498	67.1167	-30.3151	-154.736	52.4621	-22.8242	-141.95	66.1559	-35.5408	-128.789	79.8088	-47.2038	-137.599	51.4215	-18.1938	-125.559	64.8993	-31.5207	-107.053	78.1349	-42.9244	-124.907	46.2817	-2.26486	-112.307	60.5295	-15.3145	-99.7422	74.3065	-25.9196	-122.507	40.777	13.2886	-110.881	50.5738	3.50738	-101.156	61.3106	-8.0025	-152.678	14.3418	27.4081	-168.064	3.84149	39.21	-180.104	14.9099	20.7915	
26	0.216667	-201.488	28.5387	25.6027	-205.151	38.0696	-0.725233	-193.014	44.9667	-19.531	-183.396	54.2935	-34.5952	-163.382	40.4565	-30.2165	-146.442	48.7154	-43.9802	-135.918	58.8429	-59.7157	-137.669	41.0252	-26.4821	-131.719	50.549	-43.5576	-117.508	57.3287	-61.3242	-129.742	40.2202	-15.8294	-119.072	50.7984	-32.0261	-109.492	60.8695	-48.7968	-120.317	37.4242	6.16057	-114.433	47.3487	-11.7691	-104.986	51.6746	-25.1331	-145.732	16.6632	21.2992	-158.822	3.60552	44.63	-176.864	12.6806	19.2616	
27	0.225	-197.976	28.3508	28.702	-208.853	35.2544	1.94393	-198.105	37.4256	-24.5203	-191.181	44.7786	-42.4577	-165.964	28.7115	-29.8702	-156.034	32.6752	-53.5158	-142.137	37.0523	-68.0876	-146.999	28.7741	-34.8202	-135.186	32.1311	-51.5831	-126.278	33.5787	-76.4732	-131.942	29.0472	-19.2346	-123.48	35.4953	-41.5199	-116.556	38.4086	-56.487	-121.739	29.9525	-0.999813	-120.494	35.3992	-17.1227	-112.323	39.2737	-36.578	-151.571	14.6427	20.1319	-157.522	7.0957	44.9621	-175.444	10.6341	19.0478	
28	0.233333	-205.053	32.5423	28.0372	-210.65	37.8708	6.05793	-205.023	37.2058	-19.3544	-198.56	39.999	-38.1173	-177.265	19.7789	-32.8464	-168.158	18.7012	-51.2155	-156.247	15.2795	-75.1277	-161.619	16.936	-32.9776	-152.422	14.0065	-57.0573	-142.71	10.1606	-74.5098	-144.346	17.7034	-25.6906	-140.16	16.3158	-46.9814	-134.759	15.2346	-63.5854	-134.595	20.2064	-6.78109	-128.042	20.706	-26.6294	-124.428	18.7845	-45.2469	-154.374	9.8223	16.7868	-165.168	7.41329	45.5833	-184.185	9.64286	23.6156	
29	0.241667	-206.282	44.993	32.7316	-213.022	46.3756	6.03092	-216.219	45.364	-18.5786	-208.98	44.3207	-39.4278	-191.204	18.0914	-28.1187	-188.111	11.2566	-49.977	-184.098	2.65572	-73.2976	-173.907	7.25279	-32.9169	-171.802	1.78361	-54.1502	-169.309	-9.66999	-77.5967	-160.885	7.8599	-24.9941	-158.368	2.16958	-45.815	-154.049	-4.94632	-63.1863	-148.895	11.0656	-9.50727	-146.124	4.78263	-29.7941	-146.544	1.04992	-48.184	-170.386	10.7062	20.1849	-173.692	11.6257	43.1544	-195.33	16.3709	26.2733	
30	0.25	-202.757	52.2212	31.5604	-216.236	58.847	6.26425	-214.113	54.6773	-13.7855	-212.337	49.0298	-37.1177	-209.223	20.8877	-28.28	-205.193	11.7085	-42.7068	-206.258	-2.85937	-65.8562	-191.845	7.10989	-26.6824	-194.281	-3.99271	-48.6199	-196.395	-16.1497	-67.1998	-179.35	0.839108	-23.0436	-179.393	-8.09951	-42.7736	-185.657	-13.0057	-61.4351	-163.71	1.02468	-9.77891	-165.202	-5.18731	-25.2382	-171.555	-14.127	-46.5094	-178.594	6.52474	19.751	-179.774	13.354	46.3835	-201.35	22.8874	28.8938	
31	0.258333	-198.14	62.8176	36.3334	-210.888	72.6023	9.9219	-214.752	65.1043	-9.21012	-219.922	62.0865	-32.5065	-220.915	27.3443	-19.3931	-227.19	20.2315	-35.6071	-235.044	7.0602	-54.1222	-215.279	10.4368	-22.155	-222.57	0.819488	-40.2766	-234.241	-11.903	-57.2826	-198.047	0.374445	-13.7809	-206.751	-5.83605	-31.0455	-216.948	-14.6977	-50.1679	-181.642	-4.18974	-1.71677	-191.073	-13.2255	-19.4561	-199.817	-17.3943	-32.6327	-192.824	10.6729	26.2296	-188.143	19.8413	51.3028	-208.53	36.8142	33.2869	
32	0.266667	-191.536	68.4068	36.7122	-201.706	79.1834	14.0618	-212.13	77.2808	-7.84469	-218.783	69.2935	-26.8802	-229.352	43.8795	-8.98219	-241.051	31.2541	-26.3902	-253.957	19.893	-40.9783	-228.213	20.3861	-10.2671	-242.941	12.1077	-25.8822	-259.5	3.53654	-42.2028	-219.304	9.11596	-4.26306	-230.728	0.540559	-18.7423	-243.92	-5.40222	-35.2118	-202.914	-4.09987	4.88125	-217.13	-5.66849	-9.43862	-230.534	-11.8791	-24.2735	-203.928	15.8769	31.496	-193.179	25.3125	55.5792	-206.248	41.5057	39.7365	
33	0.275	-185.381	74.3026	38.149	-195.866	85.7919	14.152	-209.619	83.6304	-8.58997	-215.311	79.858	-23.9723	-232.092	52.2532	-5.46706	-248.294	45.5086	-19.7055	-265.621	40.1446	-33.8384	-240.14	35.3042	-7.60841	-254.985	29.9207	-19.5189	-273.544	25.6677	-31.2412	-233.553	20.4888	-1.12858	-246.79	15.3156	-12.9444	-264.974	11.6526	-27.3722	-222.62	3.73895	8.61565	-235.089	5.01184	-3.84752	-250.513	0.00322492	-12.2729	-212.318	27.4981	33.9608	-201.059	30.1627	54.6192	-209.555	50.6738	41.6171	
34	0.283333	-180.244	72.4729	36.5546	-185.726	89.0753	13.0831	-199.206	89.5185	-6.11971	-210.992	86.7615	-24.6927	-231.477	68.0675	-5.51936	-252.545	63.6698	-21.4959	-266.806	62.6281	-29.7929	-245.765	52.0626	-6.96849	-263.077	49.8525	-19.2942	-284.844	51.1328	-30.3465	-241.443	32.8278	1.471	-258.653	36.9827	-12.4358	-276.627	35.6989	-24.3795	-229.95	15.4287	11.1687	-249.109	20.2457	-1.84575	-264.482	23.4616	-11.8198	-217.701	36.393	33.8089	-203.215	35.0757	57.1288	-208.918	57.0658	40.6257	
35	0.291667	-173.803	70.9987	34.491	-180.979	87.5916	10.1686	-191.707	90.6444	-7.31345	-202.673	91.3626	-27.028	-227.889	82.2755	-8.1519	-246.616	86.7299	-24.5451	-261.119	87.3545	-32.9648	-246.527	65.7511	-8.43005	-260.73	73.5116	-21.9459	-280.342	80.9355	-30.9558	-246.357	48.9305	-0.685033	-262.819	57.5037	-14.3922	-276.073	62.6359	-25.6435	-244.15	32.6367	7.89103	-257.398	39.7283	-4.21078	-269.927	43.0686	-12.6874	-225.26	44.6934	31.263	-211.41	40.8298	54.5592	-205.44	62.9629	38.8761	
36	0.3	-170.738	66.2804	32.539	-172.733	81.5269	8.25706	-180.917	87.6608	-10.3106	-188.656	94.6244	-33.0509	-219.976	86.6038	-12.5738	-233.009	93.7282	-25.6121	-249.486	101.36	-38.8055	-236.952	80.1909	-11.5882	-247.994	90.5211	-25.3281	-268.267	99.3222	-35.856	-243.398	63.4305	-3.60712	-254.916	73.9795	-17.5913	-270.067	87.8557	-34.1355	-245.985	49.4626	2.94986	-255.202	58.7874	-9.08705	-269.901	66.9658	-20.6193	-226.482	51.7248	30.6469	-215.572	49.7144	51.3278	-203.521	67.5597	35.6453	
37	0.308333	-168.483	56.0068	27.9854	-162.507	69.2562	3.152	-166.807	74.3255	-15.6341	-172.007	80.714	-38.3768	-205.608	88.5488	-23.4679	-214.274	98.294	-38.3298	-223.185	109.445	-54.132	-223.059	84.486	-19.0566	-231.529	97.4651	-36.1864	-244.704	111.173	-49.4716	-235.696	74.5197	-10.5483	-240.966	90.1035	-29.826	-253.682	101.802	-45.1885	-242.649	59.5982	1.75475	-249.302	71.6566	-14.5998	-251.514	84.2837	-27.3436	-217.929	62.5712	26.6214	-216.126	56.8328	49.123	-192.875	71.5546	28.6052	
38	0.316667	-162.862	43.6402	25.2825	-147.03	46.4272	-0.878112	-150.946	52.0657	-24.0368	-158.856	52.3851	-41.8696	-180.832	73.963	-32.0593	-184.48	84.0926	-54.3921	-194.191	94.5322	-70.5236	-196.915	80.0871	-32.9939	-204.816	90.8849	-52.6136	-212.689	107.064	-71.401	-213.58	78.0784	-24.5296	-217.556	88.1341	-42.5537	-222.148	98.4098	-59.8115	-227.088	70.4974	-10.6047	-231.589	79.6126	-25.8286	-233.173	91.4009	-45.5924	-207.916	67.2712	18.2799	-199.135	64.9342	40.1041	-176.942	66.9856	21.6501	
